<svg xmlns="http://www.w3.org/2000/svg" width="23" height="23">
  <g fill="#00416B" fill-rule="evenodd">
    <path d="M22.163 22.004a1.255 1.255 0 0 1-1.768-.008l-5.404-5.472a1.256 1.256 0 0 1 .007-1.77l.068-.068a1.25 1.25 0 0 1 1.764.01l5.405 5.473a1.25 1.25 0 0 1-.007 1.767l-.065.068z"/>
    <path d="M9.292 3C5.547 3 2.499 6.047 2.499 9.79c0 3.745 3.048 6.79 6.793 6.79a6.798 6.798 0 0 0 6.79-6.79c0-3.743-3.048-6.79-6.79-6.79m0 16.08c-5.125 0-9.293-4.168-9.293-9.29C0 4.667 4.167.5 9.292.5c5.123 0 9.29 4.167 9.29 9.29 0 5.122-4.168 9.29-9.29 9.29"/>
  </g>
</svg>
