<svg xmlns="http://www.w3.org/2000/svg" width="28" height="29">
  <path fill="#00416B" fill-rule="evenodd" d="M23.881 23.518l-6.98-4.138a1.782 1.782 0 0 0-1.377-.19c-.463.12-.86.428-1.086.833l-2.024 3.562v-5.822l8.863-9.725-12.704 5.445-4.763-1.845 20.94-8.73-.869 20.61zM26.58.308a1.809 1.809 0 0 0-1.7-.17l-23.792 9.92A1.732 1.732 0 0 0 0 11.683c.01.71.45 1.337 1.125 1.6l6.794 2.635c.53.205 1.132.152 1.435-.058l2.26-.965-1.221 1.338a1.738 1.738 0 0 0-.525 1.24v9.025c0 .807.532 1.485 1.327 1.687.152.04.31.058.46.058.63 0 1.215-.328 1.538-.895l3.08-5.423 7.41 4.395a1.78 1.78 0 0 0 1.759.04c.557-.295.906-.842.931-1.462l.97-23.083a1.73 1.73 0 0 0-.764-1.507z"/>
</svg>
